<svg width="28" height="28" viewBox="0 0 28 28" fill="none" xmlns="http://www.w3.org/2000/svg">
<path d="M5.81341 8.39635C7.22321 8.39635 8.36607 7.25348 8.36607 5.84368C8.36607 4.43388 7.22321 3.29102 5.81341 3.29102C4.40361 3.29102 3.26074 4.43388 3.26074 5.84368C3.26074 7.25348 4.40361 8.39635 5.81341 8.39635Z" fill="#461504"/>
<path d="M10.776 10.331V24.4931H15.1732V17.4896C15.1732 15.6416 15.5209 13.852 17.8122 13.852C20.072 13.852 20.1 15.9648 20.1 17.6063V24.4943H24.4995V16.7278C24.4995 12.9128 23.6782 9.98096 19.2192 9.98096C17.0784 9.98096 15.6434 11.1558 15.0565 12.2676H14.997V10.331H10.776ZM3.61035 10.331H8.01452V24.4931H3.61035V10.331Z" fill="#461504"/>
</svg>
